<svg width="100" height="46" viewBox="0 0 100 46" fill="none" xmlns="http://www.w3.org/2000/svg">
<g id="Group 21042">
<g id="recc">
<path d="M19.0855 0.0374567C21.3687 0.0374567 22.6039 1.1237 23.2027 2.2474L21.8178 8.05319C21.4061 7.86591 20.1709 7.2666 17.9626 7.2666C16.2782 7.2666 14.0324 7.60371 12.7598 8.24048V10.825C12.7598 18.9156 12.9095 20.751 12.9095 21.2754C12.3106 21.2754 11.0006 21.2005 9.35369 21.2005C7.4822 21.2005 6.39673 21.2754 5.87271 21.2754C5.87271 20.751 6.02243 18.9156 6.02243 10.825C6.02243 5.50614 5.49841 1.72301 5.49841 1.27353L12.3855 0.0374567C12.3855 0.561851 12.6101 1.76047 12.6849 5.73088C13.2838 3.07145 15.2676 0.0374567 19.0855 0.0374567Z" fill="#1B1D24"/>
<path d="M38.0422 15.9566C42.1595 15.9566 44.5176 14.4957 45.3785 13.6717L47.0628 17.8294C45.7153 19.1778 42.5712 21.65 36.7696 21.65C31.0803 21.65 24.4926 18.9906 24.4926 10.5253C24.4926 3.25873 31.0803 0 35.6841 0C42.4589 0 47.6617 3.78313 47.0254 10.6002C46.5388 11.0872 43.4696 12.1734 38.6037 12.1734C36.6947 12.1734 33.8126 12.0611 31.1551 11.1996C31.3048 14.271 32.9143 15.9566 38.0422 15.9566ZM36.0959 4.86937C33.3261 4.86937 31.8663 6.29273 31.3423 8.61504C32.6897 8.54013 34.449 8.46522 36.545 8.46522C37.7053 8.46522 39.0154 8.42776 40.4003 8.42776V7.90337C40.4003 6.21781 38.7908 4.86937 36.0959 4.86937Z" fill="#1B1D24"/>
<path d="M61.4303 21.65C54.3187 21.65 49.6773 16.9679 49.6773 10.825C49.6773 4.68209 54.3187 0 61.4303 0C65.9593 0 68.7292 1.91029 70.975 3.55839L69.2906 8.12811C66.8951 6.96695 64.537 5.99307 62.0292 5.99307C57.9494 5.99307 56.1902 8.50267 56.1902 10.825C56.1902 13.1473 57.9494 15.6569 62.0292 15.6569C64.537 15.6569 66.8951 15.0576 69.2906 13.8964L70.975 18.4662C68.7292 20.1143 65.9593 21.65 61.4303 21.65Z" fill="#1B1D24"/>
<path d="M84.7875 21.65C77.6758 21.65 73.0345 16.9679 73.0345 10.825C73.0345 4.68209 77.6758 0 84.7875 0C89.3165 0 92.0863 1.91029 94.3321 3.55839L92.6477 8.12811C90.2522 6.96695 87.8941 5.99307 85.3863 5.99307C81.3065 5.99307 79.5473 8.50267 79.5473 10.825C79.5473 13.1473 81.3065 15.6569 85.3863 15.6569C87.8941 15.6569 90.2522 15.0576 92.6477 13.8964L94.3321 18.4662C92.0863 20.1143 89.3165 21.65 84.7875 21.65Z" fill="#1B1D24"/>
</g>
<path id="Vector 53 (Stroke)" fill-rule="evenodd" clip-rule="evenodd" d="M49.0818 40.6916C47.0273 38.6816 46.2242 38.1304 44.9549 38.1683C43.7183 38.2053 42.9255 38.8012 40.9453 40.777C40.8828 40.8393 40.8187 40.9035 40.753 40.9694C39.0246 42.7009 36.1681 45.5626 31.5047 45.6512C26.6128 45.7441 23.7114 42.7663 21.9732 40.9823C21.9216 40.9295 21.8711 40.8776 21.8216 40.827C19.8517 38.8105 19.0855 38.2048 17.799 38.1685C16.474 38.1311 15.7367 38.6668 13.7816 40.6658C13.7152 40.7337 13.6471 40.8037 13.5771 40.8755C11.816 42.6847 8.89493 45.6857 3.92873 45.6518C1.74392 45.6369 -0.0149906 43.8772 9.63337e-05 41.7212C0.0151832 39.5653 1.79855 37.8297 3.98336 37.8446C5.34795 37.8539 6.11048 37.2664 8.08842 35.244C8.14273 35.1885 8.1982 35.1316 8.25486 35.0735C10.0338 33.2489 12.9851 30.222 18.0252 30.3643C22.7508 30.4976 25.5845 33.417 27.285 35.1689C27.3651 35.2515 27.4428 35.3314 27.518 35.4084C29.4389 37.3748 30.1531 37.868 31.3524 37.8452C32.5691 37.8221 33.3507 37.2516 35.3197 35.287C35.3883 35.2185 35.4589 35.1477 35.5314 35.075C37.2511 33.3507 40.0915 30.5026 44.7154 30.3644C49.6289 30.2176 52.651 33.1833 54.4775 34.9757C54.537 35.0342 54.5953 35.0914 54.6524 35.1472C56.7448 37.1942 57.59 37.8351 58.9293 37.8445C60.217 37.8536 60.9255 37.3187 62.8369 35.3196C62.895 35.2589 62.9544 35.1965 63.0153 35.1326C64.7344 33.3278 67.6087 30.3101 72.5701 30.3629C77.3208 30.4134 80.2816 33.2695 82.1021 35.0255C82.1764 35.0972 82.2487 35.167 82.3193 35.2347C84.3426 37.1776 85.2106 37.8169 86.5071 37.8436C86.5589 37.829 86.6966 37.7858 86.9318 37.6708C87.3654 37.4587 87.9359 37.0984 88.6318 36.5604C90.0258 35.4829 91.5846 33.9588 93.1127 32.2951C94.5799 30.6976 97.0818 30.5763 98.7006 32.0242C100.32 33.472 100.442 35.9408 98.9752 37.5382C97.3165 39.3441 95.4137 41.2358 93.511 42.7066C92.5586 43.4428 91.5219 44.1398 90.4446 44.6666C89.4007 45.1769 88.0685 45.6519 86.5933 45.6519C81.8044 45.6518 78.8274 42.7826 76.9979 41.0193C76.9308 40.9547 76.8653 40.8916 76.8013 40.8301C74.722 38.8335 73.8495 38.1844 72.4848 38.1699C71.2038 38.1563 70.4994 38.6825 68.5918 40.6776C68.5318 40.7404 68.4703 40.8049 68.4073 40.8712C66.6911 42.6734 63.8218 45.6867 58.8728 45.6518C54.0877 45.6181 51.1206 42.6978 49.3236 40.9291C49.2405 40.8473 49.1599 40.768 49.0818 40.6916Z" fill="#9EAE93"/>
</g>
</svg>
